Coordinates
version=1
nRows=24
nColumns=38
inDegrees=no

Units are S.I. units (second, meters, Newtons, ...)
If the header above contains a line with 'inDegrees', this indicates whether rotational values are in degrees (yes) or radians (no).

endheader
time	pelvis_tilt	pelvis_list	pelvis_rotation	pelvis_tx	pelvis_ty	pelvis_tz	hip_flexion_r	hip_adduction_r	hip_rotation_r	knee_angle_r	ankle_angle_r	subtalar_angle_r	mtp_angle_r	hip_flexion_l	hip_adduction_l	hip_rotation_l	knee_angle_l	ankle_angle_l	subtalar_angle_l	mtp_angle_l	lumbar_extension	lumbar_bending	lumbar_rotation	arm_flex_r	arm_add_r	arm_rot_r	elbow_flex_r	pro_sup_r	wrist_flex_r	wrist_dev_r	arm_flex_l	arm_add_l	arm_rot_l	elbow_flex_l	pro_sup_l	wrist_flex_l	wrist_dev_l
10	-3.06386	1.39107	-1.54594	0.632415	1.19723	0.946163	0.130113	-0.158286	-0.213751	0.983978	0.0283761	0	0	0.00534675	-0.0227496	-0.271798	0.284768	-0.026182	0	0	-0.35582	-0.0019241	0.0180316	0.475534	-0.495269	0.0328305	1.50038	1.5708	0	0	0.741545	-0.148101	0.533323	1.29332	1.5708	0	0
10.01	-3.05736	1.39047	-1.55783	0.633692	1.19252	0.945932	0.117075	-0.1592	-0.214151	0.987716	0.0274099	0	0	0.00753098	-0.0214873	-0.276071	0.280345	-0.0323047	0	0	-0.355701	-0.00210874	0.0220802	0.47435	-0.493573	0.0347804	1.50741	1.5708	0	0	0.737405	-0.151371	0.527655	1.29797	1.5708	0	0
10.02	-3.05168	1.38978	-1.56935	0.635061	1.18773	0.945684	0.103279	-0.159932	-0.214885	0.98858	0.0271887	0	0	0.0100687	-0.0206396	-0.281014	0.276718	-0.0381829	0	0	-0.355848	-0.00207899	0.0264894	0.473819	-0.49215	0.0376085	1.51454	1.5708	0	0	0.733753	-0.154882	0.522255	1.30219	1.5708	0	0
10.03	-3.02965	1.38914	-1.59472	0.637669	1.18275	0.945408	0.089779	-0.148846	-0.213933	0.988299	0.0194055	0	0	0.0131616	-0.0196618	-0.287607	0.273022	-0.0432184	0	0	-0.356236	-0.00676127	0.0293458	0.473065	-0.491288	0.0395248	1.52096	1.5708	0	0	0.73181	-0.160019	0.515297	1.30566	1.5708	0	0
10.04	-3.02427	1.38801	-1.60609	0.639136	1.17781	0.945124	0.0737961	-0.150861	-0.21731	0.982857	0.0173329	0	0	0.016181	-0.0194601	-0.293117	0.270775	-0.0490528	0	0	-0.357018	-0.00647705	0.0338719	0.473572	-0.489909	0.0430885	1.52705	1.5708	0	0	0.729402	-0.163879	0.510816	1.30947	1.5708	0	0
10.05	-3.01893	1.38745	-1.61736	0.640715	1.17273	0.944769	0.0578861	-0.153027	-0.221686	0.974272	0.0118327	0	0	0.0203813	-0.0195161	-0.298596	0.269214	-0.0550705	0	0	-0.357434	-0.00609151	0.0383474	0.474495	-0.488232	0.0466449	1.53289	1.5708	0	0	0.727456	-0.167945	0.506623	1.31278	1.5708	0	0
10.06	-3.01353	1.38761	-1.62866	0.642377	1.16753	0.944325	0.0422052	-0.15498	-0.226738	0.962621	0.00392659	0	0	0.025936	-0.0197779	-0.304077	0.268284	-0.0611563	0	0	-0.357256	-0.00564772	0.0426955	0.475924	-0.486437	0.0505929	1.53853	1.5708	0	0	0.725871	-0.172308	0.502652	1.31579	1.5708	0	0
10.07	-3.00928	1.3885	-1.63888	0.644143	1.16216	0.943807	0.027098	-0.155695	-0.230723	0.948925	0.000514729	0	0	0.0331382	-0.0207183	-0.30991	0.26858	-0.0671741	0	0	-0.356667	-0.00498728	0.0471805	0.477969	-0.484262	0.0543751	1.54394	1.5708	0	0	0.724829	-0.176844	0.498793	1.31875	1.5708	0	0
10.08	-3.00639	1.38961	-1.64802	0.646085	1.15665	0.943259	0.0119294	-0.155122	-0.233709	0.93284	0.00265506	0	0	0.0412254	-0.0225151	-0.316438	0.269878	-0.0732342	0	0	-0.356052	-0.00424082	0.0520541	0.48059	-0.481568	0.0579628	1.54918	1.5708	0	0	0.724119	-0.181222	0.494628	1.32149	1.5708	0	0
10.09	-3.00308	1.39154	-1.65787	0.648243	1.15098	0.942627	-0.00272253	-0.153238	-0.235307	0.913418	0.00646003	0	0	0.050239	-0.024571	-0.322623	0.270815	-0.079866	0	0	-0.354736	-0.00380627	0.0574748	0.483506	-0.478626	0.0620067	1.55379	1.5708	0	0	0.723608	-0.185143	0.489879	1.32354	1.5708	0	0
10.1	-3.00398	1.39248	-1.66281	0.650498	1.14517	0.942106	-0.0207644	-0.148792	-0.237464	0.886747	0.0129482	0	0	0.0586941	-0.027939	-0.328972	0.272566	-0.0866188	0	0	-0.354908	-0.00255822	0.0622848	0.487417	-0.475637	0.0671607	1.55788	1.5708	0	0	0.723223	-0.189254	0.484547	1.32616	1.5708	0	0
10.11	-3.00294	1.39404	-1.66989	0.652911	1.13918	0.941519	-0.0392087	-0.142815	-0.237954	0.853706	0.0288868	0	0	0.0680072	-0.0313522	-0.335568	0.274264	-0.0940089	0	0	-0.354639	-0.0019113	0.0674656	0.491506	-0.472227	0.0716528	1.56135	1.5708	0	0	0.723893	-0.194133	0.48148	1.32808	1.5708	0	0
10.12	-3.00124	1.39538	-1.67734	0.655462	1.13304	0.940962	-0.0594638	-0.136264	-0.239656	0.813031	0.0525702	0	0	0.07662	-0.0346971	-0.341555	0.274695	-0.102254	0	0	-0.354793	-0.00159412	0.0723267	0.496128	-0.468312	0.0762449	1.56417	1.5708	0	0	0.725163	-0.199393	0.478996	1.32937	1.5708	0	0
10.13	-2.99721	1.39682	-1.68665	0.658115	1.12674	0.940399	-0.0801262	-0.130476	-0.245218	0.766475	0.0776777	0	0	0.0849059	-0.0375455	-0.346463	0.273672	-0.111493	0	0	-0.355049	-0.00172128	0.0767292	0.501304	-0.4645	0.0818114	1.56664	1.5708	0	0	0.726696	-0.2045	0.47562	1.33023	1.5708	0	0
10.14	-2.99125	1.399	-1.69767	0.660873	1.12021	0.939778	-0.0987222	-0.125139	-0.253548	0.71944	0.0997851	0	0	0.0939903	-0.0401819	-0.350804	0.27194	-0.121864	0	0	-0.354862	-0.00215151	0.0809567	0.507136	-0.460657	0.0879901	1.56841	1.5708	0	0	0.728417	-0.208958	0.470982	1.33047	1.5708	0	0
10.15	-2.98764	1.40192	-1.70596	0.663724	1.11343	0.939129	-0.114262	-0.118925	-0.262764	0.675998	0.120329	0	0	0.10386	-0.0434508	-0.354282	0.269593	-0.133056	0	0	-0.354432	-0.002034	0.0849276	0.513913	-0.456611	0.0941498	1.56923	1.5708	0	0	0.730419	-0.212985	0.465443	1.33027	1.5708	0	0
10.16	-2.99092	1.4052	-1.70687	0.666587	1.10633	0.938605	-0.12581	-0.111476	-0.273506	0.637548	0.137272	0	0	0.11372	-0.0477943	-0.356212	0.265842	-0.145477	0	0	-0.354692	-0.000385592	0.0888269	0.52196	-0.452822	0.100868	1.56979	1.5708	0	0	0.733419	-0.216934	0.4602	1.32921	1.5708	0	0
10.17	-3.00126	1.40867	-1.70005	0.669373	1.09893	0.93829	-0.133604	-0.102343	-0.2846	0.60246	0.148073	0	0	0.123231	-0.0530445	-0.35709	0.260484	-0.15936	0	0	-0.355946	0.00283617	0.0926398	0.530644	-0.449359	0.107625	1.57047	1.5708	0	0	0.737363	-0.220376	0.455201	1.32726	1.5708	0	0
10.18	-3.02114	1.41177	-1.68245	0.672076	1.09129	0.938281	-0.140779	-0.0898462	-0.293741	0.566866	0.152054	0	0	0.131467	-0.059449	-0.355599	0.25302	-0.175188	0	0	-0.358562	0.00804708	0.0957629	0.540276	-0.446636	0.115041	1.57045	1.5708	0	0	0.741321	-0.222818	0.449484	1.32458	1.5708	0	0
10.19	-3.04329	1.4151	-1.66102	0.674667	1.08348	0.938462	-0.146708	-0.0762372	-0.303277	0.532648	0.153154	0	0	0.139091	-0.0657123	-0.351351	0.243046	-0.192992	0	0	-0.36145	0.0139696	0.0976867	0.550235	-0.444143	0.123051	1.57017	1.5708	0	0	0.745322	-0.224836	0.443888	1.32135	1.5708	0	0
10.2	-3.06162	1.41936	-1.64219	0.677117	1.07557	0.938668	-0.149412	-0.0636605	-0.313128	0.502608	0.153304	0	0	0.146747	-0.070857	-0.345367	0.230541	-0.211767	0	0	-0.36352	0.0195168	0.0987795	0.559785	-0.441785	0.130176	1.57018	1.5708	0	0	0.74953	-0.226483	0.438861	1.31761	1.5708	0	0
10.21	-3.07529	1.42462	-1.62728	0.67946	1.06765	0.938835	-0.14856	-0.0527442	-0.321998	0.477048	0.152528	0	0	0.15473	-0.0752056	-0.339442	0.216655	-0.230387	0	0	-0.364418	0.0243181	0.0992641	0.56873	-0.439414	0.136367	1.57042	1.5708	0	0	0.753871	-0.227872	0.43438	1.31382	1.5708	0	0
10.22	-3.08386	1.43071	-1.6169	0.681693	1.05976	0.93894	-0.144817	-0.0436176	-0.328961	0.455107	0.1515	0	0	0.163274	-0.0790152	-0.3348	0.202444	-0.248142	0	0	-0.364257	0.0283248	0.099185	0.577394	-0.437572	0.142829	1.57061	1.5708	0	0	0.758099	-0.228946	0.429741	1.31022	1.5708	0	0
10.23	-3.08786	1.43764	-1.61041	0.683792	1.05191	0.938969	-0.138203	-0.0363685	-0.334347	0.436843	0.150465	0	0	0.172635	-0.0825342	-0.331284	0.188713	-0.263457	0	0	-0.362967	0.0317092	0.0984095	0.585799	-0.436024	0.149987	1.57063	1.5708	0	0	0.762125	-0.229689	0.424719	1.30683	1.5708	0	0
